<svg width="189" height="189" viewBox="0 0 189 189" fill="none" xmlns="http://www.w3.org/2000/svg">
<path d="M79.5195 3.73093C82.1739 0.0665263 87.4297 -0.464438 90.7634 2.59502C93.5903 5.1894 97.9116 5.25713 100.818 2.75262C104.246 -0.200861 109.483 0.494558 112.021 4.24035C114.174 7.41673 118.363 8.47919 121.769 6.71256C125.786 4.62923 130.721 6.51354 132.327 10.7437C133.689 14.3309 137.52 16.3308 141.241 15.3973C145.63 14.2964 149.998 17.268 150.585 21.7546C151.083 25.5591 154.35 28.3886 158.186 28.3386C162.711 28.2795 166.275 32.1782 165.812 36.6792C165.419 40.496 167.945 44.0027 171.69 44.8387C176.106 45.8247 178.675 50.4403 177.186 54.7132C175.924 58.3365 177.573 62.3312 181.024 64.0083C185.094 65.9861 186.529 71.0698 184.095 74.8842C182.031 78.1186 182.715 82.3861 185.686 84.8138C189.19 87.6768 189.415 92.9546 186.166 96.1048C183.412 98.7761 183.093 103.086 185.424 106.134C188.174 109.728 187.175 114.915 183.288 117.231C179.992 119.195 178.687 123.315 180.253 126.818C182.099 130.949 179.931 135.767 175.615 137.124C171.955 138.275 169.735 141.983 170.451 145.753C171.295 150.198 168.074 154.386 163.561 154.711C159.734 154.987 156.719 158.084 156.546 161.917C156.342 166.437 152.243 169.769 147.776 169.044C143.989 168.43 140.341 170.748 139.289 174.438C138.048 178.789 133.29 181.086 129.111 179.351C125.568 177.88 121.484 179.294 119.609 182.642C117.398 186.59 112.239 187.727 108.573 185.076C105.464 182.827 101.164 183.261 98.5675 186.086C95.5056 189.418 90.2237 189.335 87.2677 185.909C84.7611 183.004 80.4769 182.435 77.2989 184.585C73.5513 187.121 68.4309 185.822 66.3446 181.807C64.5755 178.402 60.538 176.861 56.9498 178.22C52.7185 179.823 48.0356 177.379 46.9315 172.99C45.9953 169.27 42.4221 166.838 38.6172 167.333C34.1303 167.917 30.1373 164.459 30.0749 159.934C30.0221 156.098 27.1059 152.908 23.2894 152.513C18.7887 152.046 15.701 147.76 16.6837 143.343C17.517 139.598 15.415 135.821 11.7926 134.556C7.52089 133.064 5.50485 128.182 7.47966 124.11C9.15428 120.658 7.9798 116.499 4.74682 114.433C0.934269 111.996 0.0986099 106.78 2.95906 103.274C5.38467 100.301 5.20102 95.9828 2.53173 93.2266C-0.616065 89.9762 -0.226305 84.708 3.36556 81.9562C6.41141 79.6228 7.2285 75.3789 5.26681 72.0813C2.95346 68.1926 4.54763 63.1563 8.67728 61.307C12.1792 59.7389 13.9529 55.7978 12.8046 52.1367C11.4504 47.8193 14.1631 43.2865 18.6079 42.4394C22.377 41.7211 25.0118 38.2954 24.7387 34.4681C24.4167 29.9548 28.1016 26.1697 32.6219 26.3705C36.4551 26.5408 39.809 23.815 40.4259 20.028C41.1533 15.562 45.6118 12.7288 49.964 13.9666C53.6546 15.0163 57.5466 13.1375 59.0202 9.59475C60.758 5.41698 65.7497 3.68825 69.6991 5.89644C73.0481 7.76895 77.2686 6.8383 79.5195 3.73093Z" fill="#000000"/>
</svg>
