<svg width="30" height="32" viewBox="0 0 30 32" fill="none" xmlns="http://www.w3.org/2000/svg">
<path opacity="0.9" d="M6.77797 31.76C6.77797 31.4133 6.7113 31.24 6.57797 31.24L5.65797 31.68C5.65797 31.4933 5.5513 31.36 5.33797 31.28L5.01797 31.24C4.80464 31.24 4.53797 31.3333 4.21797 31.52C4.16464 31.3867 4.09797 31.2533 4.01797 31.12C3.93797 30.9867 3.8713 30.8667 3.81797 30.76C3.4713 30.0933 3.12464 29.36 2.77797 28.56C2.45797 27.7333 2.1513 26.9467 1.85797 26.2C1.5913 25.4533 1.37797 24.8667 1.21797 24.44C1.1113 24.0933 0.991302 23.5733 0.857969 22.88C0.724636 22.1867 0.591302 21.3067 0.457969 20.24C0.751302 20.4267 0.977969 20.52 1.13797 20.52C1.32464 20.52 1.49797 20.24 1.65797 19.68C1.73797 19.7867 1.88464 19.84 2.09797 19.84C2.25797 19.84 2.37797 19.7867 2.45797 19.68L3.09797 18.72L3.81797 18.96H3.85797C3.9113 18.96 3.96464 18.9333 4.01797 18.88C4.0713 18.8267 4.1513 18.7733 4.25797 18.72C4.4713 18.5867 4.6313 18.52 4.73797 18.52L4.85797 18.56C5.52464 18.88 5.9513 19.4667 6.13797 20.32C6.61797 22.3467 7.09797 23.36 7.57797 23.36C8.05797 23.36 8.61797 22.8533 9.25797 21.84C9.57797 21.3333 9.89797 20.7467 10.218 20.08C10.5646 19.4133 10.9113 18.6667 11.258 17.84C11.3113 18.16 11.3646 18.32 11.418 18.32C11.5513 18.32 11.778 17.9867 12.098 17.32C12.4446 16.6533 12.9913 15.7333 13.738 14.56C14.1646 13.84 14.698 13.0267 15.338 12.12C16.0046 11.2133 16.7113 10.28 17.458 9.32C18.2046 8.36 18.9246 7.45333 19.618 6.6C20.338 5.74667 20.978 5.01333 21.538 4.4C22.098 3.78666 22.5113 3.38667 22.778 3.2C23.7913 2.50667 24.5913 1.84 25.178 1.2C25.1513 1.38666 25.1113 1.56 25.058 1.72C25.0313 1.85333 25.018 1.94667 25.018 2C25.018 2.10666 25.0713 2.16 25.178 2.16L26.298 1.6V1.76C26.298 1.97333 26.3513 2.08 26.458 2.08C26.538 2.08 26.698 1.96 26.938 1.72C27.178 1.48 27.3113 1.30667 27.338 1.2L27.258 1.76L28.618 0.96L28.298 1.68C28.7246 1.38667 29.0313 1.24 29.218 1.24C29.3246 1.24 29.4046 1.30666 29.458 1.44C29.5113 1.54667 29.538 1.65333 29.538 1.76C29.538 1.92 29.4713 2.10666 29.338 2.32C29.2046 2.53333 29.0313 2.78667 28.818 3.08C28.658 3.29333 28.3913 3.61333 28.018 4.04C27.6713 4.44 27.138 5.04 26.418 5.84C25.698 6.61333 24.738 7.69333 23.538 9.08C23.218 9.42667 22.7246 10.04 22.058 10.92C21.3913 11.7733 20.6313 12.7733 19.778 13.92C18.9513 15.04 18.1246 16.1733 17.298 17.32C16.4713 18.4667 15.738 19.5067 15.098 20.44C14.458 21.3467 14.0046 22.0267 13.738 22.48L11.258 26.68C10.7246 27.5867 10.2846 28.3333 9.93797 28.92C9.5913 29.48 9.32464 29.8667 9.13797 30.08C8.73797 30.56 8.29797 30.9867 7.81797 31.36L7.45797 31.16L7.13797 31.36L6.77797 31.76Z" fill="black"/>
</svg>
