<svg width="32" height="32" viewBox="0 0 32 32" fill="#000000" xmlns="http://www.w3.org/2000/svg">
<path d="M17.3333 21V19H22.6667V21H17.3333ZM19.3333 28V26.3333H17.3333V24.3333H19.3333V22.6667H21.3333V28H19.3333ZM22.6667 26.3333V24.3333H28V26.3333H22.6667ZM24 22.6667V17.3333H26V19H28V21H26V22.6667H24ZM27.7 13.3333H24.9333C24.3556 11.3778 23.2556 9.77778 21.6333 8.53333C20.0111 7.28889 18.1333 6.66667 16 6.66667C13.4 6.66667 11.1942 7.57244 9.38267 9.384C7.57111 11.1956 6.66578 13.4009 6.66667 16C6.66667 17.6 7.028 19.0667 7.75067 20.4C8.47333 21.7333 9.44533 22.8222 10.6667 23.6667V20H13.3333V28H5.33333V25.3333H8.46667C7.08889 24.2222 6 22.8613 5.2 21.2507C4.4 19.64 4 17.8898 4 16C4 14.3333 4.31689 12.7724 4.95067 11.3173C5.58444 9.86222 6.43956 8.59556 7.516 7.51733C8.59244 6.43911 9.85911 5.58356 11.316 4.95067C12.7729 4.31778 14.3342 4.00089 16 4C18.8667 4 21.3836 4.88356 23.5507 6.65067C25.7178 8.41778 27.1009 10.6453 27.7 13.3333Z"/>
</svg>
