<svg width="25" height="25" viewBox="0 0 25 25" fill="none" xmlns="http://www.w3.org/2000/svg">
<path d="M12.5 9.8667C11.7044 9.8667 10.9413 10.1828 10.3787 10.7454C9.81607 11.308 9.5 12.071 9.5 12.8667C9.5 13.6623 9.81607 14.4254 10.3787 14.988C10.9413 15.5506 11.7044 15.8667 12.5 15.8667C13.2956 15.8667 14.0587 15.5506 14.6213 14.988C15.1839 14.4254 15.5 13.6623 15.5 12.8667C15.5 12.071 15.1839 11.308 14.6213 10.7454C14.0587 10.1828 13.2956 9.8667 12.5 9.8667ZM12.5 17.8667C11.1739 17.8667 9.90215 17.3399 8.96447 16.4022C8.02678 15.4646 7.5 14.1928 7.5 12.8667C7.5 11.5406 8.02678 10.2688 8.96447 9.33117C9.90215 8.39348 11.1739 7.8667 12.5 7.8667C13.8261 7.8667 15.0979 8.39348 16.0355 9.33117C16.9732 10.2688 17.5 11.5406 17.5 12.8667C17.5 14.1928 16.9732 15.4646 16.0355 16.4022C15.0979 17.3399 13.8261 17.8667 12.5 17.8667ZM12.5 5.3667C7.5 5.3667 3.23 8.4767 1.5 12.8667C3.23 17.2567 7.5 20.3667 12.5 20.3667C17.5 20.3667 21.77 17.2567 23.5 12.8667C21.77 8.4767 17.5 5.3667 12.5 5.3667Z" fill="black"/>
</svg>
