<svg width="32" height="32" viewBox="0 0 32 32" fill="none" xmlns="http://www.w3.org/2000/svg">
<path fill-rule="evenodd" clip-rule="evenodd" d="M26.3697 5.90662C26.6992 5.76794 27.0598 5.72011 27.4141 5.76811C27.7683 5.81611 28.1032 5.95818 28.3839 6.17953C28.6647 6.40089 28.8809 6.69344 29.0102 7.02673C29.1395 7.36002 29.177 7.72187 29.119 8.07462L26.095 26.4173C25.8017 28.1866 23.8604 29.2013 22.2377 28.32C20.8804 27.5826 18.8644 26.4466 17.051 25.2613C16.1444 24.668 13.367 22.768 13.7084 21.416C14.0017 20.26 18.6684 15.916 21.335 13.3333C22.3817 12.3186 21.9044 11.7333 20.6684 12.6666C17.599 14.984 12.671 18.508 11.0417 19.5C9.60435 20.3746 8.85502 20.524 7.95902 20.3746C6.32435 20.1026 4.80835 19.6813 3.57102 19.168C1.89902 18.4746 1.98035 16.176 3.56969 15.5066L26.3697 5.90662Z" fill="black"/>
</svg>
