<?xml version="1.0" encoding="utf-8"?><svg viewBox="0 0 32 32" xmlns="http://www.w3.org/2000/svg" xmlns:xlink="http://www.w3.org/1999/xlink"><style>:root>svg{display:none}:root>svg:target{display:block}</style><svg viewBox="0 0 24 24" id="arrow" xmlns="http://www.w3.org/2000/svg"><path fill-rule="evenodd" clip-rule="evenodd" d="M11.5406 19.8097C11.2869 19.556 11.2869 19.1446 11.5406 18.8909L17.7818 12.6497H4.64968C4.29087 12.6497 4 12.3588 4 12C4 11.6412 4.29087 11.3503 4.64968 11.3503H17.7818L11.5406 5.10908C11.2869 4.85536 11.2869 4.444 11.5406 4.19029C11.7943 3.93657 12.2057 3.93657 12.4594 4.19029L19.8097 11.5406C20.0634 11.7943 20.0634 12.2057 19.8097 12.4594L12.4594 19.8097C12.2057 20.0634 11.7943 20.0634 11.5406 19.8097Z" fill="currentColor"/></svg><svg viewBox="0 0 16 16" id="chevron" xmlns="http://www.w3.org/2000/svg"><path fill-rule="evenodd" clip-rule="evenodd" d="M2.53039 4.46973L8.00006 9.9394L13.4697 4.46973L14.5304 5.53039L8.00006 12.0607L1.46973 5.53039L2.53039 4.46973Z" fill="currentColor"/></svg><svg viewBox="0 0 17 17" id="cross" xmlns="http://www.w3.org/2000/svg"><path fill-rule="evenodd" clip-rule="evenodd" d="M14.0661 14.8734L2.75244 3.55968L3.8131 2.49902L15.1268 13.8127L14.0661 14.8734Z" fill="currentColor"/><path fill-rule="evenodd" clip-rule="evenodd" d="M15.1268 3.55968L3.8131 14.8734L2.75244 13.8127L14.0661 2.49902L15.1268 3.55968Z" fill="currentColor"/></svg><svg viewBox="0 0 24 24" id="file" xmlns="http://www.w3.org/2000/svg"><path fill-rule="evenodd" clip-rule="evenodd" d="M6 1C4.34314 1 3 2.34315 3 4V20C3 21.6569 4.34315 23 6 23H19C20.6569 23 22 21.6569 22 20V10C22 9.73478 21.8946 9.48043 21.7071 9.29289L13.7071 1.29292C13.6114 1.19722 13.4983 1.1229 13.3753 1.07308C13.2572 1.02527 13.1299 1 13 1H6ZM12 3H6C5.44771 3 5 3.44771 5 4V20C5 20.5523 5.44772 21 6 21H19C19.5523 21 20 20.5523 20 20V11H13C12.4477 11 12 10.5523 12 10V3ZM18.5858 9.00003L14 4.41424V9.00003H18.5858Z" fill="currentColor"/></svg><svg viewBox="0 0 24 24" id="minus" xmlns="http://www.w3.org/2000/svg"><path d="M16.9453 11.2529V12.7471H7.05469V11.2529H16.9453Z" fill="currentColor"/></svg><svg viewBox="0 0 24 24" id="plus" xmlns="http://www.w3.org/2000/svg"><path d="M16.9453 11.2529V12.7471H7.05469V11.2529H16.9453Z" fill="currentColor"/><path d="M12.7471 16.9453H11.2529L11.2529 7.05469L12.7471 7.05469L12.7471 16.9453Z" fill="currentColor"/></svg><svg viewBox="0 0 32 32" id="tg" xmlns="http://www.w3.org/2000/svg"><path fill-rule="evenodd" clip-rule="evenodd" d="M26.3697 5.90662C26.6992 5.76794 27.0598 5.72011 27.4141 5.76811C27.7683 5.81611 28.1032 5.95818 28.3839 6.17953C28.6647 6.40089 28.8809 6.69344 29.0102 7.02673C29.1395 7.36002 29.177 7.72187 29.119 8.07462L26.095 26.4173C25.8017 28.1866 23.8604 29.2013 22.2377 28.32C20.8804 27.5826 18.8644 26.4466 17.051 25.2613C16.1444 24.668 13.367 22.768 13.7084 21.416C14.0017 20.26 18.6684 15.916 21.335 13.3333C22.3817 12.3186 21.9044 11.7333 20.6684 12.6666C17.599 14.984 12.671 18.508 11.0417 19.5C9.60435 20.3746 8.85502 20.524 7.95902 20.3746C6.32435 20.1026 4.80835 19.6813 3.57102 19.168C1.89902 18.4746 1.98035 16.176 3.56969 15.5066L26.3697 5.90662Z" fill="currentColor"/></svg><svg viewBox="0 0 32 32" id="vk" xmlns="http://www.w3.org/2000/svg"><g clip-path="url(#hclip0_565_710)"><path fill-rule="evenodd" clip-rule="evenodd" d="M31.2667 7.93067C31.488 7.20267 31.2667 6.66667 30.2067 6.66667H26.7067C25.816 6.66667 25.4053 7.12933 25.1827 7.64C25.1827 7.64 23.4027 11.9013 20.8813 14.6693C20.0653 15.472 19.6947 15.7267 19.2493 15.7267C19.0267 15.7267 18.692 15.472 18.692 14.7427V7.93067C18.692 7.056 18.4467 6.66667 17.7053 6.66667H12.2013C11.6453 6.66667 11.3107 7.072 11.3107 7.45733C11.3107 8.28533 12.572 8.47733 12.7013 10.808V15.872C12.7013 16.9827 12.4973 17.184 12.052 17.184C10.8653 17.184 7.97867 12.9027 6.26533 8.004C5.93333 7.05067 5.59733 6.66667 4.70267 6.66667H1.2C0.2 6.66667 0 7.12933 0 7.64C0 8.54933 1.18667 13.0667 5.52667 19.0413C8.42 23.1213 12.4933 25.3333 16.204 25.3333C18.4293 25.3333 18.704 24.8427 18.704 23.996V20.912C18.704 19.9293 18.9147 19.7333 19.62 19.7333C20.14 19.7333 21.0293 19.9893 23.1067 21.956C25.48 24.288 25.8707 25.3333 27.2067 25.3333H30.7067C31.7067 25.3333 32.208 24.8427 31.92 23.872C31.6027 22.9067 30.4693 21.5053 28.9667 19.8427C28.1507 18.896 26.9267 17.876 26.5547 17.3653C26.036 16.7107 26.184 16.4187 26.5547 15.836C26.5547 15.836 30.8213 9.93467 31.2653 7.93067" fill="currentColor"/></g><defs><clipPath id="hclip0_565_710"><rect width="32" height="32" fill="white"/></clipPath></defs></svg></svg>