<?xml version="1.0" encoding="utf-8"?><svg viewBox="0 0 32 32" xmlns="http://www.w3.org/2000/svg" xmlns:xlink="http://www.w3.org/1999/xlink"><style>:root>svg{display:none}:root>svg:target{display:block}</style><svg viewBox="0 0 24 24" id="arrow" xmlns="http://www.w3.org/2000/svg"><path fill-rule="evenodd" clip-rule="evenodd" d="M11.5406 19.8097C11.2869 19.556 11.2869 19.1446 11.5406 18.8909L17.7818 12.6497H4.64968C4.29087 12.6497 4 12.3588 4 12C4 11.6412 4.29087 11.3503 4.64968 11.3503H17.7818L11.5406 5.10908C11.2869 4.85536 11.2869 4.444 11.5406 4.19029C11.7943 3.93657 12.2057 3.93657 12.4594 4.19029L19.8097 11.5406C20.0634 11.7943 20.0634 12.2057 19.8097 12.4594L12.4594 19.8097C12.2057 20.0634 11.7943 20.0634 11.5406 19.8097Z" fill="currentColor"/></svg><svg viewBox="0 0 28 28" id="arrow-bold" xmlns="http://www.w3.org/2000/svg"><path opacity="0.9" d="M6.96045 27L14.1977 18.4773H0V10.5227H14.1582L6.96045 2H17.1638L28 14.5L17.1638 27H6.96045Z" fill="currentColor"/></svg><svg viewBox="0 0 30 32" id="checkmark" xmlns="http://www.w3.org/2000/svg"><path opacity="0.9" d="M6.77797 31.76C6.77797 31.4133 6.7113 31.24 6.57797 31.24L5.65797 31.68C5.65797 31.4933 5.5513 31.36 5.33797 31.28L5.01797 31.24C4.80464 31.24 4.53797 31.3333 4.21797 31.52C4.16464 31.3867 4.09797 31.2533 4.01797 31.12C3.93797 30.9867 3.8713 30.8667 3.81797 30.76C3.4713 30.0933 3.12464 29.36 2.77797 28.56C2.45797 27.7333 2.1513 26.9467 1.85797 26.2C1.5913 25.4533 1.37797 24.8667 1.21797 24.44C1.1113 24.0933 0.991302 23.5733 0.857969 22.88C0.724636 22.1867 0.591302 21.3067 0.457969 20.24C0.751302 20.4267 0.977969 20.52 1.13797 20.52C1.32464 20.52 1.49797 20.24 1.65797 19.68C1.73797 19.7867 1.88464 19.84 2.09797 19.84C2.25797 19.84 2.37797 19.7867 2.45797 19.68L3.09797 18.72L3.81797 18.96H3.85797C3.9113 18.96 3.96464 18.9333 4.01797 18.88C4.0713 18.8267 4.1513 18.7733 4.25797 18.72C4.4713 18.5867 4.6313 18.52 4.73797 18.52L4.85797 18.56C5.52464 18.88 5.9513 19.4667 6.13797 20.32C6.61797 22.3467 7.09797 23.36 7.57797 23.36C8.05797 23.36 8.61797 22.8533 9.25797 21.84C9.57797 21.3333 9.89797 20.7467 10.218 20.08C10.5646 19.4133 10.9113 18.6667 11.258 17.84C11.3113 18.16 11.3646 18.32 11.418 18.32C11.5513 18.32 11.778 17.9867 12.098 17.32C12.4446 16.6533 12.9913 15.7333 13.738 14.56C14.1646 13.84 14.698 13.0267 15.338 12.12C16.0046 11.2133 16.7113 10.28 17.458 9.32C18.2046 8.36 18.9246 7.45333 19.618 6.6C20.338 5.74667 20.978 5.01333 21.538 4.4C22.098 3.78666 22.5113 3.38667 22.778 3.2C23.7913 2.50667 24.5913 1.84 25.178 1.2C25.1513 1.38666 25.1113 1.56 25.058 1.72C25.0313 1.85333 25.018 1.94667 25.018 2C25.018 2.10666 25.0713 2.16 25.178 2.16L26.298 1.6V1.76C26.298 1.97333 26.3513 2.08 26.458 2.08C26.538 2.08 26.698 1.96 26.938 1.72C27.178 1.48 27.3113 1.30667 27.338 1.2L27.258 1.76L28.618 0.96L28.298 1.68C28.7246 1.38667 29.0313 1.24 29.218 1.24C29.3246 1.24 29.4046 1.30666 29.458 1.44C29.5113 1.54667 29.538 1.65333 29.538 1.76C29.538 1.92 29.4713 2.10666 29.338 2.32C29.2046 2.53333 29.0313 2.78667 28.818 3.08C28.658 3.29333 28.3913 3.61333 28.018 4.04C27.6713 4.44 27.138 5.04 26.418 5.84C25.698 6.61333 24.738 7.69333 23.538 9.08C23.218 9.42667 22.7246 10.04 22.058 10.92C21.3913 11.7733 20.6313 12.7733 19.778 13.92C18.9513 15.04 18.1246 16.1733 17.298 17.32C16.4713 18.4667 15.738 19.5067 15.098 20.44C14.458 21.3467 14.0046 22.0267 13.738 22.48L11.258 26.68C10.7246 27.5867 10.2846 28.3333 9.93797 28.92C9.5913 29.48 9.32464 29.8667 9.13797 30.08C8.73797 30.56 8.29797 30.9867 7.81797 31.36L7.45797 31.16L7.13797 31.36L6.77797 31.76Z" fill="currentColor"/></svg><svg viewBox="0 0 16 16" id="chevron" xmlns="http://www.w3.org/2000/svg"><path fill-rule="evenodd" clip-rule="evenodd" d="M2.53039 4.46973L8.00006 9.9394L13.4697 4.46973L14.5304 5.53039L8.00006 12.0607L1.46973 5.53039L2.53039 4.46973Z" fill="currentColor"/></svg><svg viewBox="0 0 17 17" id="cross" xmlns="http://www.w3.org/2000/svg"><path fill-rule="evenodd" clip-rule="evenodd" d="M14.0661 14.8734L2.75244 3.55968L3.8131 2.49902L15.1268 13.8127L14.0661 14.8734Z" fill="currentColor"/><path fill-rule="evenodd" clip-rule="evenodd" d="M15.1268 3.55968L3.8131 14.8734L2.75244 13.8127L14.0661 2.49902L15.1268 3.55968Z" fill="currentColor"/></svg><svg viewBox="0 0 24 24" id="file" xmlns="http://www.w3.org/2000/svg"><path fill-rule="evenodd" clip-rule="evenodd" d="M6 1C4.34314 1 3 2.34315 3 4V20C3 21.6569 4.34315 23 6 23H19C20.6569 23 22 21.6569 22 20V10C22 9.73478 21.8946 9.48043 21.7071 9.29289L13.7071 1.29292C13.6114 1.19722 13.4983 1.1229 13.3753 1.07308C13.2572 1.02527 13.1299 1 13 1H6ZM12 3H6C5.44771 3 5 3.44771 5 4V20C5 20.5523 5.44772 21 6 21H19C19.5523 21 20 20.5523 20 20V11H13C12.4477 11 12 10.5523 12 10V3ZM18.5858 9.00003L14 4.41424V9.00003H18.5858Z" fill="currentColor"/></svg><svg viewBox="0 0 24 24" id="minus" xmlns="http://www.w3.org/2000/svg"><path d="M16.9453 11.2529V12.7471H7.05469V11.2529H16.9453Z" fill="currentColor"/></svg><svg viewBox="0 0 24 24" id="pixel-blocks" xmlns="http://www.w3.org/2000/svg"><path d="M2 5H22V19H2V5ZM4 7V17H8V7H4ZM10 7V17H14V7H10ZM16 7V17H20V7H16Z" fill="currentColor"/></svg><svg viewBox="0 0 24 24" id="pixel-building" xmlns="http://www.w3.org/2000/svg"><path d="M2 2H16V6H22V22H2V2ZM20 8H16V10H18V12H16V14H18V16H16V18H18V20H20V8ZM14 4H4V20H6V18H12V20H14V4ZM6 6H8V8H6V6ZM12 6H10V8H12V6ZM6 10H8V12H6V10ZM12 10H10V12H12V10ZM6 14H8V16H6V14ZM12 14H10V16H12V14Z" fill="currentColor"/></svg><svg viewBox="0 0 24 24" id="pixel-case" xmlns="http://www.w3.org/2000/svg"><path d="M16 3H8V7H2V21H22V7H16V3ZM14 7H10V5H14V7ZM4 19V9H20V19H4ZM14 11H16V13H14V11ZM12 15V13H14V15H12ZM10 15H12V17H10V15ZM10 15H8V13H10V15Z" fill="currentColor"/></svg><svg viewBox="0 0 24 24" id="pixel-contact" xmlns="http://www.w3.org/2000/svg"><path d="M2 3H24V14H22V5H2V19H14V21H0V3H2ZM10 7H6V11H10V7ZM4 13H12V17H4V13ZM20 7H14V9H20V7ZM14 11H20V13H14V11ZM17 15H14V17H17V15ZM21 21V24H19V21H16V19H19V16H21V19H24V21H21Z" fill="currentColor"/></svg><svg viewBox="0 0 24 24" id="pixel-cup" xmlns="http://www.w3.org/2000/svg"><path d="M16 3H6V5H2V15H8V5H16V15H22V5H18V3H16ZM20 7V13H18V7H20ZM6 13H4V7H6V13ZM18 15H6V17H18V15ZM11 17H13V19H16V21H8V19H11V17Z" fill="currentColor"/></svg><svg viewBox="0 0 24 24" id="pixel-geometric" xmlns="http://www.w3.org/2000/svg"><path d="M3 3H11V11H3V3ZM9 9V5H5V9H9ZM18 13H16V16H13V18H16V21H18V18H21V16H18V13ZM15 3H21V11H13V3H15ZM19 9V5H15V9H19ZM5 13H11V21H3V13H5ZM9 19V15H5V19H9Z" fill="currentColor"/></svg><svg viewBox="0 0 24 24" id="pixel-gesture" xmlns="http://www.w3.org/2000/svg"><path d="M9 2H5V6H9V2ZM16 9V7H2V16H4V22H6V16H8V22H10V9H16ZM11 2H22V16H11V14H20V4H11V2Z" fill="currentColor"/></svg><svg viewBox="0 0 24 24" id="pixel-height" xmlns="http://www.w3.org/2000/svg"><path d="M4 2H8V6H4V2ZM1 7H11V16H9V22H7V16H5V22H3V16H1V7ZM19 2H17V4H15V6H13V8H15V6H17V18H15V16H13V18H15V20H17V22H19V20H21V18H23V16H21V18H19V6H21V8H23V6H21V4H19V2Z" fill="currentColor"/></svg><svg viewBox="0 0 24 24" id="pixel-lamp" xmlns="http://www.w3.org/2000/svg"><path d="M13 2H11V6H13V2ZM15 8H9V10H7V14H9V18H15V14H17V10H15V8ZM15 10V14H13V16H11V14H9V10H15ZM9 20H15V22H9V20ZM23 11V13H19V11H23ZM5 13V11H1V13H5ZM17 6H19V8H17V6ZM19 6H21V4H19V6ZM5 6H7V8H5V6ZM5 6V4H3V6H5Z" fill="currentColor"/></svg><svg viewBox="0 0 24 24" id="pixel-message" xmlns="http://www.w3.org/2000/svg"><path d="M20 2H2V22H4V4H20V16H6V18H4V20H6V18H22V2H20Z" fill="currentColor"/></svg><svg viewBox="0 0 24 24" id="pixel-sad" xmlns="http://www.w3.org/2000/svg"><path d="M4.22222 2H19.7778V4.22222H4.22222V2ZM4.22222 19.7778H2V4.22222H4.22222V19.7778ZM19.7778 19.7778V22H4.22222V19.7778H19.7778ZM19.7778 19.7778H22V4.22222H19.7778V19.7778ZM9.77778 7.55556H7.55556V9.77778H9.77778V7.55556ZM14.2222 7.55556H16.4444V9.77778H14.2222V7.55556ZM15.3333 14.2222V16.4444H8.66667V14.2222H15.3333Z" fill="currentColor"/></svg><svg viewBox="0 0 24 24" id="pixel-smile" xmlns="http://www.w3.org/2000/svg"><path d="M4.22222 2H19.7778V4.22222H4.22222V2ZM4.22222 19.7778H2V4.22222H4.22222V19.7778ZM19.7778 19.7778V22H4.22222V19.7778H19.7778ZM19.7778 19.7778H22V4.22222H19.7778V19.7778ZM9.77778 7.55556H7.55556V9.77778H9.77778V7.55556ZM14.2222 7.55556H16.4444V9.77778H14.2222V7.55556ZM8.66667 16.4444V14.2222H15.3333V16.4444H17.5556V14.2222H15.3333V12H8.66667V14.2222H6.44444V16.4444H8.66667Z" fill="currentColor"/></svg><svg viewBox="0 0 24 24" id="pixel-truck" xmlns="http://www.w3.org/2000/svg"><path d="M2 4H16V8H20V10H16V16H22V12H24V18H20V20H16V18H8V20H4V18H0V4H2ZM22 12H20V10H22V12ZM14 10V6H2V16H14V10Z" fill="currentColor"/></svg><svg viewBox="0 0 24 24" id="pixel-users" xmlns="http://www.w3.org/2000/svg"><path d="M11 2H5V4H3V10H5V12H11V10H5V4H11V2ZM11 4H13V10H11V4ZM0 16H2V20H14V22H0V16ZM2 16H14V14H2V16ZM16 16H14V22H16V16ZM15 2H19V4H15V2ZM19 10H15V12H19V10ZM19 4H21V10H19V4ZM24 16H22V20H18V22H24V16ZM18 14H22V16H18V14Z" fill="currentColor"/></svg><svg viewBox="0 0 24 24" id="pixel-wallet" xmlns="http://www.w3.org/2000/svg"><path d="M18 3H2V21H20V17H22V7H20V3H18ZM18 17V19H4V5H18V7H10V17H18ZM20 15H12V9H20V15ZM16 11H14V13H16V11Z" fill="currentColor"/></svg><svg viewBox="0 0 24 24" id="plus" xmlns="http://www.w3.org/2000/svg"><path d="M16.9453 11.2529V12.7471H7.05469V11.2529H16.9453Z" fill="currentColor"/><path d="M12.7471 16.9453H11.2529L11.2529 7.05469L12.7471 7.05469L12.7471 16.9453Z" fill="currentColor"/></svg><svg viewBox="0 0 32 32" fill="#000000" id="reset" xmlns="http://www.w3.org/2000/svg"><path d="M17.3333 21V19H22.6667V21H17.3333ZM19.3333 28V26.3333H17.3333V24.3333H19.3333V22.6667H21.3333V28H19.3333ZM22.6667 26.3333V24.3333H28V26.3333H22.6667ZM24 22.6667V17.3333H26V19H28V21H26V22.6667H24ZM27.7 13.3333H24.9333C24.3556 11.3778 23.2556 9.77778 21.6333 8.53333C20.0111 7.28889 18.1333 6.66667 16 6.66667C13.4 6.66667 11.1942 7.57244 9.38267 9.384C7.57111 11.1956 6.66578 13.4009 6.66667 16C6.66667 17.6 7.028 19.0667 7.75067 20.4C8.47333 21.7333 9.44533 22.8222 10.6667 23.6667V20H13.3333V28H5.33333V25.3333H8.46667C7.08889 24.2222 6 22.8613 5.2 21.2507C4.4 19.64 4 17.8898 4 16C4 14.3333 4.31689 12.7724 4.95067 11.3173C5.58444 9.86222 6.43956 8.59556 7.516 7.51733C8.59244 6.43911 9.85911 5.58356 11.316 4.95067C12.7729 4.31778 14.3342 4.00089 16 4C18.8667 4 21.3836 4.88356 23.5507 6.65067C25.7178 8.41778 27.1009 10.6453 27.7 13.3333Z"/></svg><svg viewBox="0 0 32 32" id="tg" xmlns="http://www.w3.org/2000/svg"><path fill-rule="evenodd" clip-rule="evenodd" d="M26.3697 5.90662C26.6992 5.76794 27.0598 5.72011 27.4141 5.76811C27.7683 5.81611 28.1032 5.95818 28.3839 6.17953C28.6647 6.40089 28.8809 6.69344 29.0102 7.02673C29.1395 7.36002 29.177 7.72187 29.119 8.07462L26.095 26.4173C25.8017 28.1866 23.8604 29.2013 22.2377 28.32C20.8804 27.5826 18.8644 26.4466 17.051 25.2613C16.1444 24.668 13.367 22.768 13.7084 21.416C14.0017 20.26 18.6684 15.916 21.335 13.3333C22.3817 12.3186 21.9044 11.7333 20.6684 12.6666C17.599 14.984 12.671 18.508 11.0417 19.5C9.60435 20.3746 8.85502 20.524 7.95902 20.3746C6.32435 20.1026 4.80835 19.6813 3.57102 19.168C1.89902 18.4746 1.98035 16.176 3.56969 15.5066L26.3697 5.90662Z" fill="currentColor"/></svg><svg viewBox="0 0 32 32" id="vk" xmlns="http://www.w3.org/2000/svg"><g clip-path="url(#kclip0_565_710)"><path fill-rule="evenodd" clip-rule="evenodd" d="M31.2667 7.93067C31.488 7.20267 31.2667 6.66667 30.2067 6.66667H26.7067C25.816 6.66667 25.4053 7.12933 25.1827 7.64C25.1827 7.64 23.4027 11.9013 20.8813 14.6693C20.0653 15.472 19.6947 15.7267 19.2493 15.7267C19.0267 15.7267 18.692 15.472 18.692 14.7427V7.93067C18.692 7.056 18.4467 6.66667 17.7053 6.66667H12.2013C11.6453 6.66667 11.3107 7.072 11.3107 7.45733C11.3107 8.28533 12.572 8.47733 12.7013 10.808V15.872C12.7013 16.9827 12.4973 17.184 12.052 17.184C10.8653 17.184 7.97867 12.9027 6.26533 8.004C5.93333 7.05067 5.59733 6.66667 4.70267 6.66667H1.2C0.2 6.66667 0 7.12933 0 7.64C0 8.54933 1.18667 13.0667 5.52667 19.0413C8.42 23.1213 12.4933 25.3333 16.204 25.3333C18.4293 25.3333 18.704 24.8427 18.704 23.996V20.912C18.704 19.9293 18.9147 19.7333 19.62 19.7333C20.14 19.7333 21.0293 19.9893 23.1067 21.956C25.48 24.288 25.8707 25.3333 27.2067 25.3333H30.7067C31.7067 25.3333 32.208 24.8427 31.92 23.872C31.6027 22.9067 30.4693 21.5053 28.9667 19.8427C28.1507 18.896 26.9267 17.876 26.5547 17.3653C26.036 16.7107 26.184 16.4187 26.5547 15.836C26.5547 15.836 30.8213 9.93467 31.2653 7.93067" fill="currentColor"/></g><defs><clipPath id="kclip0_565_710"><rect width="32" height="32" fill="white"/></clipPath></defs></svg></svg>