<svg width="101" height="81" viewBox="0 0 101 81" fill="none" xmlns="http://www.w3.org/2000/svg">
<g clip-path="url(#clip0_9763_3422)">
<path d="M5.33008 15.3862V26.2603H7.48315H9.63621V17.2828V8.3053H13.3091H16.982V17.2828V26.2603H19.135H21.2881V15.3862V4.51198H13.3091H5.33008V15.3862Z" fill="white"/>
<path d="M16.0171 32.5889C12.6092 33.48 9.99843 35.341 8.37629 38.0346C7.472 39.5359 6.63712 42.1908 6.61128 43.6464L6.59659 44.4683H10.616H14.6356L14.7739 43.4385C15.2661 39.7742 19.9203 37.9908 23.2046 40.2084C25.8876 42.0198 26.0775 47.1696 23.5321 49.088C22.5597 49.8209 21.086 50.2812 19.705 50.2832L18.7551 50.2847V53.6628V57.0406L20.2734 57.1992C24.0362 57.5916 25.9653 59.6193 25.9653 63.182C25.9653 67.0618 23.0901 69.6245 19.2472 69.1704C16.4802 68.8431 14.6777 67.2054 14.2357 64.6169L14.0556 63.5613L10.0726 63.4918L6.08998 63.422L6.09429 64.2504C6.10214 65.7331 6.81063 68.4782 7.53381 69.8279C9.76134 73.9859 14.2927 76.3165 20.171 76.3279C24.4518 76.3359 27.8499 75.0781 30.4409 72.5262C32.8534 70.1501 33.9532 67.2937 33.9532 63.4043C33.9532 59.4673 32.4754 56.3037 29.7659 54.4407L28.4011 53.5024L29.4675 52.7542C31.5549 51.2889 32.7341 49.3576 33.2115 46.6206C34.1376 41.3105 31.5096 35.9619 26.7944 33.5605C23.95 32.1114 19.4076 31.702 16.0171 32.5889Z" fill="white"/>
<path fill-rule="evenodd" clip-rule="evenodd" d="M47.0988 32.4629C42.6946 33.5301 39.2867 36.6121 37.8247 40.8494C37.465 41.8913 37.3913 43.6588 37.3107 53.1777C37.2056 65.5925 37.3039 66.7702 38.6727 69.5019C40.8243 73.7954 45.2803 76.3322 50.6711 76.3322C54.7169 76.3322 57.7051 75.1625 60.3158 72.5573C62.3228 70.5544 63.2531 68.72 63.7656 65.7556C64.2983 62.6739 64.1128 43.1998 63.5323 41.2657C61.8053 35.512 56.895 32.0472 50.5445 32.1016C49.4299 32.1112 47.8792 32.2738 47.0988 32.4629ZM45.64 42.9254C46.2348 41.1519 47.6287 39.7807 49.221 39.4032C51.7406 38.8056 54.1262 39.8321 55.2962 42.0173C55.8534 43.0577 55.8653 43.2691 55.9466 53.4458C56.0426 65.4352 55.9869 65.9395 54.385 67.5999C52.2808 69.7811 49.1262 69.7985 46.9648 67.6409C46.35 67.0269 45.8006 66.1764 45.6357 65.5837C45.2416 64.1667 45.2456 44.1018 45.64 42.9254Z" fill="white"/>
<path fill-rule="evenodd" clip-rule="evenodd" d="M77.9581 32.4728C74.4929 33.3109 71.2473 35.733 69.6961 38.639C68.2675 41.3148 68.1578 42.4262 68.1578 54.2045C68.1578 66.0148 68.265 67.0871 69.7199 69.8175C72.9277 75.8383 81.3576 78.1565 88.1598 74.8889C90.0142 73.998 92.6901 71.3078 93.5605 69.4592C94.8153 66.7945 94.8723 66.1307 94.8723 54.2045C94.8723 41.9212 94.8363 41.5641 93.2975 38.6025C90.6979 33.5989 84.1386 30.9777 77.9581 32.4728ZM76.5429 42.9254C77.1376 41.1519 78.5315 39.7807 80.1238 39.4032C83.0368 38.7123 85.6665 40.1715 86.4857 42.9338C86.8295 44.0925 86.8933 45.8402 86.8933 54.1114C86.8933 60.2975 86.7902 64.3953 86.6142 65.2152C86.0655 67.7691 83.5198 69.5171 80.8756 69.1552C78.8905 68.8836 77.5867 67.9181 76.7364 66.0902C76.3015 65.1555 76.2652 64.2684 76.2602 54.4318C76.2564 47.1309 76.3453 43.5149 76.5429 42.9254Z" fill="white"/>
<path fill-rule="evenodd" clip-rule="evenodd" d="M84.9935 4.59771C83.2779 5.16494 82.4445 5.70561 81.2637 7.01709C79.6352 8.82549 79.4209 9.7981 79.4209 15.3862C79.4209 21.1072 79.6866 22.133 81.6841 24.1272C83.3298 25.7705 84.9826 26.3888 87.6532 26.3605C90.8858 26.3261 93.4885 24.6522 94.8376 21.7392C95.3348 20.6654 95.3789 20.1483 95.3789 15.3862C95.3789 10.3327 95.3624 10.1668 94.7221 8.81108C93.4249 6.06471 90.9902 4.49554 87.7938 4.34609C86.7568 4.29779 85.5814 4.40324 84.9935 4.59771ZM83.6414 14.6996C83.7528 10.3985 84.1004 9.31306 85.6227 8.51494C87.3809 7.59367 89.5829 8.18897 90.5662 9.8512C91.0208 10.6197 91.0728 11.1619 91.0728 15.1333C91.0728 17.5673 90.9897 19.8539 90.8879 20.2146C90.21 22.6195 86.5967 23.3971 84.8089 21.5227C83.7936 20.4583 83.532 18.9291 83.6414 14.6996Z" fill="white"/>
<path fill-rule="evenodd" clip-rule="evenodd" d="M61.8164 15.3862V26.2603L66.9458 26.2543C72.4946 26.2474 73.7213 26.0803 75.2384 25.1244C78.2656 23.2166 78.6569 17.867 75.9218 15.7842L75.0223 15.0991L76.0018 14.1212C78.7674 11.3602 77.5923 6.43798 73.8325 5.03369C72.585 4.56762 71.8697 4.51198 67.1261 4.51198H61.8164V15.3862ZM66.2492 13.2366L66.1765 10.749L66.1035 8.2613L69.0487 8.34652C71.9148 8.42947 72.0098 8.45071 72.6043 9.14135C73.4658 10.1423 73.4181 11.3579 72.4761 12.4107L71.737 13.2366L68.9932 13.2366H66.2492ZM66.1225 22.467V19.8117V17.1564H69.055C71.9584 17.1564 71.9948 17.1637 72.7279 17.8956C73.5699 18.7362 73.7155 19.9918 73.1073 21.1659C72.5663 22.2106 71.7116 22.467 68.7703 22.467H66.1225Z" fill="white"/>
<path fill-rule="evenodd" clip-rule="evenodd" d="M47.9355 5.20742C47.7969 5.59004 46.019 10.4364 43.9845 15.9777C41.9502 21.5187 40.2857 26.099 40.2857 26.1564C40.2857 26.2136 41.2916 26.2603 42.5209 26.2603H44.756L45.3518 24.3637L45.9475 22.467H49.9112H53.8749L54.4706 24.3637L55.0664 26.2603H57.3287C59.0329 26.2603 59.5615 26.1825 59.4721 25.9442C59.4067 25.7705 57.6075 20.8771 55.4742 15.0701L51.5949 4.51198H49.8915C48.2627 4.51198 48.1766 4.54258 47.9355 5.20742ZM47.3782 18.6105C47.3784 18.3278 48.4479 15.1651 49.5751 12.1135L49.9902 10.9902L51.3163 14.7689C52.0458 16.8468 52.5911 18.6327 52.5286 18.7369C52.4658 18.8411 51.2813 18.9266 49.8963 18.9266C48.0507 18.9266 47.3782 18.8421 47.3782 18.6105Z" fill="white"/>
<path fill-rule="evenodd" clip-rule="evenodd" d="M25.3409 15.3862V26.2603H27.494H29.6471V22.2141V18.1679L31.4835 18.1629C36.8403 18.148 39.5836 16.7983 40.6586 13.6483C41.5092 11.1564 41.0284 8.65049 39.3407 6.77634C37.5389 4.77574 36.4971 4.51198 30.3973 4.51198H25.3409V15.3862ZM29.6471 14.1217V11.2135V8.3053H32.3321H35.0171L35.8783 9.16512C36.5809 9.86663 36.7395 10.2181 36.7395 11.0744C36.7395 12.3887 36.2149 13.4278 35.3534 13.8195C34.9806 13.9892 33.5834 14.1217 32.1682 14.1217H29.6471Z" fill="white"/>
</g>
<defs>
<clipPath id="clip0_9763_3422">
<rect x="0.353516" y="0.353973" width="100" height="80" fill="white"/>
</clipPath>
</defs>
</svg>
