<svg width="256" height="50" viewBox="0 0 256 50" fill="none" xmlns="http://www.w3.org/2000/svg">
<path d="M72.2573 0.453613C84.0864 0.453613 90.7062 5.59878 90.7062 15.8731V16.1296C90.8427 18.2795 90.4663 20.4311 89.608 22.4069C88.7497 24.3828 87.4339 26.1263 85.7694 27.4938C82.5637 29.9943 78.0596 31.2124 72.5939 31.2124H65.7176V48.8439H54.8823V0.453613H72.2573ZM80.1434 16.2097V15.9372C80.1434 10.792 77.1781 8.77244 71.9688 8.77244H65.7176V23.5668H71.9367C77.4506 23.5668 80.1434 21.0664 80.1434 16.2097Z" fill="#EC1C24"/>
<path d="M95.1455 47.0327C93.9655 46.0712 93.0305 44.8433 92.4175 43.4501C91.8044 42.0568 91.5309 40.538 91.6193 39.0184C91.548 37.2157 91.9947 35.4303 92.9066 33.8737C93.8184 32.317 95.1572 31.0542 96.7644 30.2347C99.9701 28.4075 104.602 27.6701 110.004 27.6701H113.995V26.2436C113.995 21.98 112.777 19.752 108.257 19.752C104.394 19.752 102.711 21.7075 102.23 24.7529H92.9657C93.0279 22.9475 93.504 21.1804 94.3571 19.588C95.2103 17.9957 96.4177 16.6205 97.8864 15.5686C101.158 13.5001 104.983 12.4821 108.85 12.6514C112.641 12.4289 116.398 13.4781 119.525 15.6327C122.17 17.7324 123.644 20.9702 123.644 25.7627V48.7958H114.139V44.5322C112.04 47.4334 109.058 49.5331 103.448 49.5331C100.48 49.6466 97.5579 48.7666 95.1455 47.0327ZM113.995 36.4217V33.4404H110.212C104.538 33.4404 101.22 34.6586 101.22 38.4413C101.22 41.0861 102.823 42.7049 106.366 42.7049C110.693 42.7049 113.995 40.4129 113.995 36.4217Z" fill="#EC1C24"/>
<path d="M139.961 13.437V20.2011C142.189 15.3925 146.02 13.5011 151.774 13.437V22.5573C144.465 22.5573 139.961 24.3204 139.961 31.0845V48.796H130.168V13.437H139.961Z" fill="#EC1C24"/>
<path d="M165.927 13.437V48.796H156.182V13.437H165.927Z" fill="#EC1C24"/>
<path d="M174.519 37.4154V20.393H169.983V13.4366H174.519V5.79102H184.328V13.4366H191.766V20.393H184.328V36.8223C184.328 39.5953 185.611 40.9417 188.239 40.9417H191.333V48.7957H185.931C178.43 48.7957 174.519 44.7885 174.519 37.4154Z" fill="#EC1C24"/>
<path d="M199.733 44.7405C197.969 43.041 196.587 40.986 195.677 38.7117C194.768 36.4375 194.353 33.9959 194.459 31.549V31.004C194.38 28.5316 194.807 26.0691 195.714 23.7676C196.621 21.4662 197.988 19.3742 199.733 17.6201C203.187 14.3382 207.791 12.5426 212.555 12.6192C216.961 12.4753 221.26 13.9977 224.593 16.8828C227.799 19.784 229.802 24.3201 229.802 30.6033V33.3121H204.317C204.589 39.2587 207.699 42.5766 213.1 42.5766C217.701 42.5766 219.864 40.6051 220.473 37.6398H229.738C228.584 45.2694 222.573 49.533 212.828 49.533C208.002 49.7189 203.298 47.9972 199.733 44.7405ZM212.555 19.3833C208.164 19.3833 205.198 22.2203 204.445 27.2854H220.265C220.009 21.8837 217.316 19.3833 212.636 19.3833H212.555Z" fill="#EC1C24"/>
<path d="M165.911 0.453613H156.182V9.20521H165.911V0.453613Z" fill="#EC1C24"/>
<path d="M236.005 37.4154V20.393H231.469V13.4366H236.005V5.79102H245.734V13.4366H253.252V20.393H245.814V36.8223C245.814 39.5953 247.097 40.9417 249.741 40.9417H252.819V48.7957H247.513C239.916 48.7957 236.005 44.7885 236.005 37.4154Z" fill="#EC1C24"/>
<path d="M24.1711 26.6924H0V48.7958H24.1711V26.6924Z" fill="#EC1C24"/>
<path d="M0 0.453732L0 22.5571L48.3422 22.5571V0.453732L0 0.453732Z" fill="#EC1C24"/>
</svg>
